<?xml version="1.0" standalone="no"?>
<!DOCTYPE svg PUBLIC "-//W3C//DTD SVG 20010904//EN"
 "http://www.w3.org/TR/2001/REC-SVG-20010904/DTD/svg10.dtd">
<svg version="1.0" xmlns="http://www.w3.org/2000/svg"
 width="500.000000pt" height="500.000000pt" viewBox="0 0 500.000000 500.000000"
 preserveAspectRatio="xMidYMid meet">
<metadata>
Created by potrace 1.14, written by Peter Selinger 2001-2017
</metadata>
<g transform="translate(0.000000,500.000000) scale(0.100000,-0.100000)"
fill="#000000" stroke="none">
<path d="M210 3861 c-69 -21 -122 -66 -156 -131 -18 -33 -19 -84 -19 -1056
l-1 -1021 58 38 c178 114 404 103 566 -28 l42 -34 1 38 c0 21 0 104 0 186 0
107 3 147 12 148 7 0 120 2 252 4 132 1 249 5 260 8 11 2 43 8 70 11 181 26
408 111 524 198 213 158 321 382 325 673 1 102 -6 156 -38 280 -108 410 -363
633 -786 684 -91 11 -1075 13 -1110 2z m1125 -676 c100 -50 136 -125 131 -270
-6 -153 -65 -229 -199 -251 -23 -4 -139 -8 -257 -8 -209 -1 -216 0 -248 22
-55 40 -60 59 -60 256 -1 136 2 185 13 205 41 76 58 80 335 78 l226 -2 59 -30z"/>
<path d="M2369 3854 c-47 -14 -109 -68 -137 -118 -16 -28 -17 -117 -20 -1050
l-2 -1020 22 20 c78 70 168 104 284 109 118 6 210 -22 297 -88 38 -30 47 -34
48 -19 0 9 2 83 2 164 2 142 9 176 33 160 10 -6 82 -183 121 -297 7 -22 18
-49 23 -60 5 -11 54 -137 110 -279 55 -143 111 -276 124 -297 31 -47 80 -84
126 -97 44 -12 252 -13 304 -2 82 18 142 85 190 210 16 41 33 79 37 84 5 6 9
16 9 23 0 7 9 32 19 56 11 23 52 123 91 222 40 99 81 199 91 222 11 24 19 46
19 49 0 3 7 20 15 37 8 18 29 70 47 117 43 111 52 125 72 117 14 -6 16 -51 16
-468 0 -322 4 -474 12 -503 39 -139 208 -230 377 -204 109 17 194 76 238 166
l28 57 0 1247 c1 973 -2 1257 -12 1290 -16 55 -64 113 -116 140 -38 20 -59 22
-224 24 -225 2 -252 -3 -318 -71 -40 -41 -59 -72 -94 -160 -25 -61 -53 -128
-62 -150 -34 -76 -156 -374 -303 -740 -32 -77 -63 -153 -71 -170 -7 -16 -17
-42 -20 -58 -4 -15 -11 -30 -16 -33 -5 -3 -9 -12 -9 -20 0 -23 -42 -81 -71
-98 -32 -19 -93 -23 -131 -8 -45 18 -73 70 -158 292 -45 118 -88 229 -95 245
-7 17 -31 77 -53 135 -22 58 -95 244 -163 414 -106 270 -127 314 -163 351 -59
62 -111 74 -312 73 -99 -1 -177 -6 -205 -14z"/>
<path d="M2425 1613 c-83 -33 -149 -93 -187 -172 -18 -37 -23 -63 -23 -131 0
-73 4 -93 28 -142 68 -139 226 -210 376 -168 110 30 199 124 224 237 33 147
-37 294 -171 360 -70 34 -183 41 -247 16z"/>
<path d="M275 1596 c-98 -31 -172 -96 -214 -185 -37 -80 -37 -202 0 -281 74
-158 242 -231 412 -180 61 19 79 30 132 83 76 76 99 135 99 247 -1 111 -50
203 -144 270 -75 53 -200 74 -285 46z"/>
</g>
</svg>
