<?xml version="1.0" standalone="no"?>
<!DOCTYPE svg PUBLIC "-//W3C//DTD SVG 20010904//EN"
 "http://www.w3.org/TR/2001/REC-SVG-20010904/DTD/svg10.dtd">
<svg version="1.0" xmlns="http://www.w3.org/2000/svg"
 width="500.000000pt" height="500.000000pt" viewBox="0 0 500.000000 500.000000"
 preserveAspectRatio="xMidYMid meet">
<metadata>
Created by potrace 1.14, written by Peter Selinger 2001-2017
</metadata>
<g transform="translate(0.000000,500.000000) scale(0.100000,-0.100000)"
fill="#000000" stroke="none">
<path d="M603 4835 c4 -7 -23 -11 -81 -10 -138 0 -235 -8 -265 -22 -15 -7 -27
-11 -27 -8 0 3 -10 -3 -22 -15 -22 -20 -32 -24 -55 -21 -6 1 -15 -4 -19 -10
-5 -8 -3 -9 6 -4 8 5 4 -5 -8 -22 l-22 -31 0 -715 c0 -662 1 -716 17 -719 9
-2 1089 -2 2400 0 l2383 2 0 683 c0 602 -2 685 -16 705 -8 12 -12 22 -7 22 4
0 1 6 -8 13 -9 7 -18 16 -20 22 -2 5 -7 9 -11 8 -5 -2 -8 4 -8 12 0 8 -7 15
-15 15 -8 0 -19 9 -25 20 -6 11 -15 18 -20 15 -4 -3 -15 1 -23 9 -8 8 -17 12
-21 9 -3 -4 -6 -2 -6 3 0 5 -12 11 -26 12 -15 1 -32 6 -38 10 -6 5 -78 9 -159
10 -82 1 -154 5 -159 8 -7 5 -8 2 -3 -6 4 -7 8 -106 7 -219 0 -127 4 -211 10
-218 7 -9 7 -13 -3 -13 -8 0 -5 -6 6 -14 11 -8 23 -12 27 -10 4 2 15 -7 25
-21 10 -14 26 -35 35 -46 10 -12 15 -26 12 -30 -3 -5 0 -9 6 -9 7 0 10 -7 6
-15 -3 -8 -1 -15 4 -15 5 0 9 -10 9 -22 -1 -13 2 -38 6 -55 5 -21 4 -33 -3
-33 -5 0 -8 -9 -5 -20 3 -11 0 -20 -6 -20 -5 0 -8 -7 -5 -15 4 -8 1 -15 -6
-15 -6 0 -9 -4 -5 -9 3 -5 -17 -34 -45 -63 -27 -29 -50 -49 -50 -45 0 5 -7 1
-16 -7 -8 -9 -34 -17 -57 -18 -118 -5 -143 -4 -154 5 -7 5 -13 6 -13 1 0 -5
-7 -1 -14 9 -8 10 -17 18 -20 18 -20 -3 -28 2 -56 32 -17 17 -35 49 -42 70 -6
20 -15 37 -19 37 -4 0 -6 33 -4 73 2 39 4 79 4 88 1 8 9 24 19 35 9 11 18 26
20 34 5 22 23 40 39 40 8 0 12 4 8 9 -3 5 4 11 16 13 21 3 21 7 22 235 l2 233
-1550 1 c-852 1 -1559 1 -1570 1 -11 0 -42 -2 -70 -5 l-50 -4 3 -223 c2 -171
5 -225 16 -235 7 -8 16 -11 20 -8 3 4 6 -1 6 -11 0 -9 4 -15 9 -12 10 6 66
-62 58 -71 -3 -2 1 -22 8 -43 19 -55 11 -163 -14 -194 -7 -9 -10 -16 -6 -16 4
0 -10 -18 -31 -39 -22 -21 -42 -37 -46 -34 -5 2 -8 -1 -8 -8 0 -7 -3 -9 -7 -6
-3 4 -12 -1 -19 -11 -10 -14 -28 -17 -115 -16 -86 2 -105 5 -116 20 -7 10 -13
14 -13 9 0 -4 -8 -1 -17 7 -10 8 -26 18 -35 21 -10 4 -18 13 -18 21 0 8 -4 16
-9 18 -5 2 -11 10 -13 18 -2 8 -9 20 -17 26 -13 10 -18 93 -11 174 4 38 39
112 50 105 9 -5 50 41 50 56 0 8 5 8 15 -1 13 -11 14 -8 11 19 -2 17 0 34 5
37 5 3 9 12 9 20 0 9 -5 12 -12 8 -6 -4 -8 -3 -5 2 6 10 10 299 4 346 -1 15
-7 31 -11 35 -5 4 -7 3 -3 -2z m1682 -463 c25 2 45 1 46 -2 0 -3 1 -129 2
-280 1 -211 4 -278 14 -288 7 -8 11 -18 8 -22 -8 -13 32 -32 68 -33 48 -1 107
28 107 52 0 12 3 21 8 21 4 0 7 123 7 272 l0 273 40 7 c22 4 55 4 73 1 l33 -5
-1 -304 c-1 -179 -5 -306 -11 -309 -5 -4 -9 -15 -9 -26 0 -10 -4 -19 -10 -19
-5 0 -10 -7 -10 -15 0 -8 -5 -15 -11 -15 -5 0 -8 -4 -5 -8 6 -11 -68 -54 -77
-45 -4 3 -12 1 -19 -4 -19 -15 -221 -10 -226 5 -2 7 -12 12 -23 12 -10 0 -19
5 -19 11 0 5 -4 8 -9 4 -14 -8 -72 67 -67 88 2 9 1 17 -4 17 -4 0 -8 135 -9
301 -2 295 -2 301 18 306 12 3 18 10 14 17 -4 6 1 5 10 -3 10 -8 34 -12 62 -9z
m-210 -8 c12 -13 15 -49 15 -222 -1 -221 -13 -411 -27 -421 -4 -3 -9 -13 -11
-21 -6 -27 -64 -73 -96 -77 -117 -11 -197 -10 -210 3 -8 8 -21 14 -29 14 -18
0 -61 49 -65 75 -2 11 -10 31 -17 46 -15 28 -10 90 8 101 5 3 35 5 66 4 44 -2
57 -6 59 -19 2 -9 8 -17 14 -17 6 0 8 -11 6 -25 -4 -17 2 -31 20 -47 14 -13
21 -16 17 -8 -8 13 -6 13 8 1 10 -8 24 -10 34 -6 10 5 21 8 24 7 4 -1 12 13
19 31 6 18 15 39 20 48 12 23 10 470 -3 490 -7 11 -5 21 7 36 22 25 117 30
141 7z m873 6 c6 0 12 -8 12 -19 0 -10 7 -24 15 -31 8 -7 12 -16 9 -21 -3 -5
0 -9 6 -9 6 0 8 -4 5 -10 -3 -5 -1 -10 4 -10 6 0 10 -3 10 -7 -1 -5 0 -12 1
-18 1 -5 3 -17 4 -25 0 -8 7 -14 14 -12 8 1 11 -2 8 -7 -4 -5 -1 -13 5 -16 5
-4 8 -13 5 -20 -3 -8 -1 -15 5 -17 5 -2 11 -14 14 -27 2 -14 10 -28 16 -32 7
-4 13 -15 14 -26 3 -32 16 -63 27 -63 6 0 8 -3 5 -6 -3 -4 -2 -14 3 -24 5 -9
12 -32 15 -51 8 -46 15 -49 15 -6 0 20 -4 38 -9 41 -5 3 -9 32 -8 63 0 32 -4
125 -8 207 -6 107 -5 147 3 142 6 -3 13 -2 16 3 5 7 63 7 134 -1 10 -1 12 -73
10 -365 -3 -401 -2 -391 -65 -387 -15 1 -45 3 -65 3 -34 1 -38 4 -49 41 -7 22
-16 40 -21 40 -6 0 -8 5 -6 12 3 7 -14 48 -37 93 -23 44 -45 93 -49 109 -4 15
-14 35 -22 43 -8 8 -12 19 -9 24 4 5 1 9 -4 9 -6 0 -10 3 -9 8 4 13 -13 52
-23 52 -12 0 -12 -27 1 -35 5 -3 9 -29 8 -58 0 -29 0 -115 1 -191 2 -86 -1
-141 -8 -145 -8 -5 -67 -6 -122 -1 -12 0 -7 745 5 752 6 4 34 6 61 3 28 -2 56
-4 63 -5z"/>
<path d="M112 1583 l3 -1468 2367 -3 2366 -2 31 39 31 39 0 1431 0 1431 -2400
0 -2400 0 2 -1467z m1986 852 c4 -4 7 -361 7 -793 l0 -787 143 0 142 0 0 -132
0 -133 -457 0 -458 0 0 131 0 132 150 1 150 1 0 650 0 650 -117 3 -118 3 0
139 0 139 68 3 c120 5 483 0 490 -7z m1382 -4 l25 -1 -6 -77 c-4 -55 -19 -113
-48 -193 -24 -63 -56 -158 -73 -210 -17 -52 -33 -99 -36 -105 -4 -5 -7 -16 -8
-23 -2 -8 -6 -21 -10 -30 -4 -9 -8 -21 -10 -27 -1 -5 -30 -91 -64 -190 -68
-201 -200 -587 -281 -827 l-54 -158 -172 0 c-95 0 -173 3 -173 7 0 7 165 494
200 588 12 33 26 76 31 95 6 19 14 44 20 55 6 12 11 27 13 35 2 8 8 28 14 43
7 16 12 34 12 41 0 7 3 16 8 20 4 4 7 11 7 14 1 10 35 114 45 137 5 11 36 99
69 195 33 96 69 202 80 234 12 33 18 62 15 65 -3 3 -139 7 -302 8 -164 0 -302
1 -309 2 -8 1 -11 42 -10 151 1 143 2 149 21 152 17 2 895 1 996 -1z"/>
</g>
</svg>
